<svg version="1.2" xmlns="http://www.w3.org/2000/svg" viewBox="0 0 1144 652" width="1144" height="652">
	<title>undraw_delivery-truck_mjui</title>
	<defs>
		<linearGradient id="g1" x2="1" gradientUnits="userSpaceOnUse" gradientTransform="matrix(0,-483.14,354.512,0,945.83,634.4)">
			<stop offset="0" stop-color="#808080" stop-opacity=".25"/>
			<stop offset=".54" stop-color="#808080" stop-opacity=".12"/>
			<stop offset="1" stop-color="#808080" stop-opacity=".1"/>
		</linearGradient>
	</defs>
	<style>
		.s0 { opacity: .1;fill: #ffffff } 
		.s1 { fill: #65617d } 
		.s2 { opacity: .1;fill: #000000 } 
		.s3 { fill: #3f3d56 } 
		.s4 { fill: url(#g1) } 
		.s5 { fill: #fbbebe } 
		.s6 { fill: #ffffff } 
		.s7 { fill: #000000 } 
	</style>
	<path fill-rule="evenodd" class="s0" d="m269 424c-148.8 0-269-3.3-269-7.2 0-4 120.2-7.2 269-7.2 148.8 0 269 3.2 269 7.2 0 3.9-120.2 7.2-269 7.2z"/>
	<g style="opacity: .7">
		<path fill-rule="evenodd" class="s1" d="m16 337.3h125v69h-125z"/>
		<path fill-rule="evenodd" class="s2" d="m60 349.3h38v8h-38z"/>
		<path fill-rule="evenodd" class="s2" d="m64.8 350.3h28.5v6h-28.5z"/>
		<path fill-rule="evenodd" class="s1" d="m143 337.3h125v69h-125z"/>
		<path fill-rule="evenodd" class="s2" d="m187 349.3h38v8h-38z"/>
		<path fill-rule="evenodd" class="s2" d="m191.8 350.3h28.4v6h-28.5z"/>
		<path fill-rule="evenodd" class="s1" d="m16 266.3h125v69h-125z"/>
		<path fill-rule="evenodd" class="s2" d="m60 278.3h38v8h-38z"/>
		<path fill-rule="evenodd" class="s2" d="m64.8 279.3h28.5v6h-28.5z"/>
		<path fill-rule="evenodd" class="s1" d="m143 266.3h125v69h-125z"/>
		<path fill-rule="evenodd" class="s2" d="m187 278.3h38v8h-38z"/>
		<path fill-rule="evenodd" class="s2" d="m191.8 279.3h28.4v6h-28.5z"/>
		<path fill-rule="evenodd" class="s1" d="m16 194.3h125v69h-125z"/>
		<path fill-rule="evenodd" class="s2" d="m60 206.3h38v8h-38z"/>
		<path fill-rule="evenodd" class="s2" d="m64.8 207.3h28.5v6h-28.5z"/>
		<path fill-rule="evenodd" class="s1" d="m143 194.3h125v69h-125z"/>
		<path fill-rule="evenodd" class="s2" d="m187 206.3h38v8h-38z"/>
		<path fill-rule="evenodd" class="s2" d="m191.8 207.3h28.4v6h-28.5z"/>
		<path fill-rule="evenodd" class="s1" d="m143 122.3h125v69h-125z"/>
		<path fill-rule="evenodd" class="s2" d="m187 134.3h38v8h-38z"/>
		<path fill-rule="evenodd" class="s2" d="m191.8 135.3h28.4v6h-28.5z"/>
	</g>
	<g style="opacity: .7">
		<path fill-rule="evenodd" class="s1" d="m270 336.3h125v69h-125z"/>
		<path fill-rule="evenodd" class="s2" d="m314 348.3h38v8h-38z"/>
		<path fill-rule="evenodd" class="s2" d="m318.8 349.3h28.4v6h-28.5z"/>
		<path fill-rule="evenodd" class="s1" d="m397 336.3h125v69h-125z"/>
		<path fill-rule="evenodd" class="s2" d="m441 348.3h38v8h-38z"/>
		<path fill-rule="evenodd" class="s2" d="m445.8 349.3h28.4v6h-28.5z"/>
		<path fill-rule="evenodd" class="s1" d="m270 265.3h125v69h-125z"/>
		<path fill-rule="evenodd" class="s2" d="m314 277.3h38v8h-38z"/>
		<path fill-rule="evenodd" class="s2" d="m318.8 278.3h28.4v6h-28.5z"/>
		<path fill-rule="evenodd" class="s1" d="m397 265.3h125v69h-125z"/>
		<path fill-rule="evenodd" class="s2" d="m441 277.3h38v8h-38z"/>
		<path fill-rule="evenodd" class="s2" d="m445.8 278.3h28.4v6h-28.5z"/>
		<path fill-rule="evenodd" class="s1" d="m270 193.3h125v69h-125z"/>
		<path fill-rule="evenodd" class="s2" d="m314 205.3h38v8h-38z"/>
		<path fill-rule="evenodd" class="s2" d="m318.8 206.3h28.4v6h-28.5z"/>
		<path fill-rule="evenodd" class="s1" d="m397 193.3h125v69h-125z"/>
		<path fill-rule="evenodd" class="s2" d="m441 205.3h38v8h-38z"/>
		<path fill-rule="evenodd" class="s2" d="m445.8 206.3h28.4v6h-28.5z"/>
		<path fill-rule="evenodd" class="s1" d="m397 121.3h125v69h-125z"/>
		<path fill-rule="evenodd" class="s2" d="m441 133.3h38v8h-38z"/>
		<path fill-rule="evenodd" class="s2" d="m445.8 134.3h28.4v6h-28.5z"/>
	</g>
	<path class="s3" d="m785.4 342q-0.1-0.6-0.3-1.1-0.2-0.5-0.5-1-0.4-0.5-0.8-0.8-0.4-0.4-0.9-0.7-0.9-0.3-1.8-0.3-1 0-1.9 0.3-0.8 0.4-1.5 1.1-0.6 0.6-1 1.5l-22.2 46.8-5 184h8l3-183.6 24.4-43.3q0.2-0.3 0.3-0.7 0.1-0.3 0.2-0.7 0-0.4 0-0.7 0-0.4 0-0.8z"/>
	<path class="s0" d="m1143.6 613.3q-2.5 2.2-5 4.2-2.6 2-5.2 4-2.7 1.9-5.4 3.7-2.7 1.8-5.5 3.4-0.1 0.1-0.1 0.2-0.1 0-0.1 0.1-0.1 0-0.1 0.1-0.1 0-0.1 0.1-0.3 0.2-0.6 0.5-0.4 0.2-0.7 0.3-0.3 0.2-0.7 0.4-0.4 0.1-0.8 0.2-9.2 5.1-19.1 9.1-9.8 3.9-20.1 6.5-10.2 2.7-20.7 4-10.5 1.3-21.1 1.2h-549.9c-63-6.5-101.4-15.1-101.4-24.5 0-7.3 23.1-14.1 62.8-19.8q6.2-0.9 12.9-1.8 4.1-0.5 8.5-1l4.9-0.5q5.4-0.7 11.1-1.3h0.3l4-0.3q5.1-0.6 10.4-1l2.5-0.3 6.6-0.6q6.3-0.5 13-1.1 5.5-0.4 11.2-0.8c38.4-2.9 82.8-5 131-6.4l13.8-0.5 4.6-0.1 9.8-0.2 4-0.1 4.1-0.1h2.9l13.8-0.2 7.1-0.1h1.5q25.1-0.3 51.2-0.3c34.4 0 67.7 0.4 99.5 1.2q27.4 0.6 53.1 1.6h0.1c49.4 2 93.6 4.8 130.2 8.4l0.6 0.1q14.1 1.3 26.7 2.8 11.8 1.5 22 3 3.6 0.5 6.9 1l0.6 0.1c9.5 1.6 17.8 3.1 24.9 4.8z"/>
	<path class="s4" d="m1122.5 628.6q-0.1 0.1-0.1 0.2-0.1 0-0.1 0.1-0.1 0-0.1 0.1-0.1 0-0.1 0.1-0.3 0.2-0.6 0.5-0.4 0.2-0.7 0.3-0.3 0.2-0.7 0.4-0.4 0.1-0.8 0.2-0.7 0.2-1.5 0.4-0.8 0.1-1.5 0.2-0.8 0.2-1.6 0.3-0.8 0-1.6 0.1h-0.6q-0.4 0-0.9 0-0.4 0-0.9 0-0.4 0-0.9-0.1-0.4 0-0.9-0.1-0.3 0-0.6 0-0.4-0.1-0.7-0.1-0.3 0-0.7 0-0.3 0-0.6 0h-0.1q-0.5 0-1 0.1-0.5 0.1-0.9 0.2-0.5 0.2-1 0.3-0.4 0.1-0.9 0.3-1 0.3-2 0.5-1.1 0.2-2.1 0.4-1 0.1-2.1 0.2-1 0.1-2.1 0.1h-1c-3.1 0-6.3-0.1-9.5-0.1q-0.7 0-1.5 0c-5.4 0.1-10.8 1-16.2 1.1h-1.7c-5.3-0.1-10.7-1.3-14.9-4.5q-0.3-0.2-0.6-0.4-0.3-0.3-0.5-0.6-0.3-0.2-0.5-0.6-0.2-0.3-0.4-0.6-0.1-0.4-0.2-0.7-0.1-0.4-0.1-0.8-0.1-0.4-0.1-0.7 0-0.4 0.1-0.8c0.1-1.8 0.4-3.8 1.8-5q0.3-0.3 0.6-0.5 0.4-0.2 0.7-0.4 0.4-0.1 0.8-0.3 0.4-0.1 0.7-0.2 2.8-0.9 5.5-1.7c1.9-0.6 4-1.2 5.9-1.8l0.4-0.1 1.1-0.3 0.7-0.3q0.4-0.1 0.7-0.2 0.3-0.1 0.6-0.3 0.3-0.1 0.6-0.3 0.3-0.1 0.6-0.3 0.4-0.2 0.7-0.5 0.4-0.3 0.7-0.6 0.3-0.3 0.6-0.7 0.3-0.3 0.5-0.7 0.2-0.3 0.3-0.6c0.1-0.2 0-0.3 0-0.5-0.2-1.2-0.3-2.5-0.5-3.7q-1.1-0.3-2.1-0.6-1-0.4-1.9-1-1-0.5-1.8-1.2-0.9-0.6-1.6-1.4-0.7-0.6-1.3-1.3-0.6-0.7-1.1-1.4-0.5-0.8-1-1.5-0.5-0.8-0.9-1.6c-2.5-4.7-3.8-9.9-5.7-14.9-2.8-7.6-7-14.5-11.2-21.5-3.8-6.3-7.6-12.7-12-18.8-2.8-4-6-7.8-8.8-11.8q-3-4.2-5.6-8.6-2.6-4.5-4.8-9.2-2.1-4.7-3.8-9.6-1.7-4.9-2.9-9.9-0.2-1-0.4-1.9-0.2-1-0.5-1.9-0.2-1-0.5-1.9-0.3-0.9-0.7-1.9c-1.7-4.2-4.8-7.6-7.3-11.4q-1-1.6-1.8-3.2-0.8-1.7-1.5-3.4-0.6-1.7-1.1-3.4-0.5-1.8-0.9-3.6c-0.5-2.7-1.3-5.7-4-6l-0.3 0.6c-5.7 11-11.5 22.2-20 31.1q-0.5 0.5-1 1.1-0.5 0.5-1 1-0.4 0.6-0.9 1.1-0.4 0.6-0.9 1.1-0.3 0.6-0.6 1.2-0.3 0.5-0.6 1.1-0.3 0.6-0.6 1.2-0.3 0.6-0.6 1.2-0.5 1-1 2.1-0.6 1-1.3 2-0.7 0.9-1.4 1.9-0.7 0.9-1.6 1.7-0.2 0.3-0.5 0.5-0.2 0.2-0.5 0.5-0.2 0.2-0.5 0.4-0.3 0.2-0.6 0.4-0.3 0.3-0.7 0.5-0.4 0.3-0.8 0.5-0.5 0.2-0.9 0.3-0.4 0.2-0.9 0.3-0.1 0.1-0.3 0.1-0.2 0.1-0.4 0.1-0.1 0.1-0.3 0.1-0.2 0-0.4 0.1c0 0.1 0.1 0.2 0.1 0.3 0 0.1 0 0.3 0.1 0.4q0.5 3 0.7 6 0.1 3.1-0.1 6.1-0.2 3-0.8 6-0.7 3-1.7 5.8-0.1 0.4-0.2 0.7-0.6 1.7-1.4 3.3c-1.2 2.7-2.6 5.2-3.8 7.9q-0.3 0.7-0.5 1.4c-4 10.7-3 22.7-3.5 34.2q0 0.9-0.1 1.9-0.1 0.9-0.2 1.9-0.1 0.9-0.3 1.8-0.1 0.9-0.3 1.9c-0.7 2.7-1.8 5.6-2.4 8.5q-0.2 0.8-0.3 1.6-0.1 0.8-0.1 1.6 0 0.9 0 1.7 0.1 0.8 0.3 1.6l-0.3 0.1q-1.6 0.6-3.2 1.1v0.1q0.6 3.4 1.2 6.8c0.3 1.9 0.7 4 2 5.3q0.1 0.1 0.3 0.3 0.1 0.1 0.2 0.2 0.2 0.1 0.3 0.3 0.1 0.1 0.2 0.2c0.8 1.3 0.1 2.9 0.2 4.4 0.3 2 2.2 3.8 1.9 5.9q-0.1 0.5-0.3 0.9-0.2 0.4-0.5 0.8-0.3 0.3-0.7 0.6-0.4 0.3-0.9 0.5-0.1 0.1-0.3 0.1-0.2 0.1-0.4 0.2-0.2 0-0.4 0.1-0.2 0-0.4 0.1h-0.3q-0.9 0.2-1.8 0.3c-7.5 0.7-15 1.4-22.4 0.2-1.5-0.3-2.9-0.6-4.4-0.7q-0.7-0.1-1.4-0.1-0.7 0-1.4 0.1-0.7 0-1.4 0.1-0.7 0-1.4 0.1-5.1 0.5-10.3 0.8-5.1 0.3-10.3 0.4-5.1 0.1-10.3 0-5.1-0.1-10.3-0.4c-3.5-0.2-7.6-0.8-9.5-3.8-1.6-2.6-1-5.8-0.2-8.7q0-0.4 0.2-0.8 0.1-0.4 0.2-0.8 0.2-0.3 0.4-0.7 0.1-0.4 0.4-0.7 0 0 0-0.1 0 0 0.1-0.1 0 0 0 0 0-0.1 0.1-0.1c1.8-2.3 5.3-2.4 8.3-2.3l9.7 0.3q0.4 0 0.7 0 0.4 0 0.7 0 0.4-0.1 0.8-0.1 0.3-0.1 0.7-0.2c1.5-0.4 2.7-1.7 4.2-2.4 1.9-0.9 4.2-1 5.6-2.5l0.1-0.2q0.1-0.2 0.2-0.3 0.1-0.1 0.2-0.2 0.1-0.1 0.1-0.3 0.1-0.1 0.2-0.2c0-0.1 0.1-0.2 0.1-0.2q0-0.1 0.1-0.1 0 0 0 0 0-0.1 0-0.1 0 0 0.1 0c1.2-1.6 3.3-2.2 5.1-3.2q0.1-0.1 0.2-0.1 0.1-0.1 0.2-0.2 0.1 0 0.2-0.1 0-0.1 0.1-0.1l0.2-0.2q-0.7-0.5-1.3-1.1-0.7-0.5-1.3-1.2-0.6-0.6-1.2-1.2-0.5-0.7-1-1.4-0.2-0.2-0.4-0.4-0.2-0.3-0.3-0.5-0.1-0.3-0.2-0.5-0.2-0.3-0.2-0.6-0.1-0.2-0.1-0.4 0-0.2 0-0.4 0-0.2 0.1-0.4 0-0.2 0.1-0.4 0 0 0-0.1 0 0 0.1-0.1 0 0 0-0.1 0 0 0-0.1l0.1-0.1c0.7-1.3 2.1-2.5 2.8-3.9q0.1 0 0.1 0 0 0 0 0 0-0.1 0-0.1 0 0 0 0c1.1-2 1.3-5.1-0.3-6.7 0.8-13.2 4.4-26 5.2-39.2 0.4-5.3 0.2-10.5 0.5-15.8 0.2-5.2 0.8-10.3 1.4-15.5 1.3-11.7 4.5-23.3 4-35.1q0-0.4 0-0.8 0-0.4 0-0.8 0-0.4 0.1-0.8 0-0.5 0.1-0.9 0 0 0 0 0-0.1 0-0.1 0 0 0-0.1 0 0 0 0 0.1-0.9 0.3-1.8 0.2-0.9 0.5-1.8 0.2-0.8 0.6-1.7 0.4-0.8 0.8-1.6 0.5-0.9 1.1-1.8 0.6-0.9 1.2-1.8 0.6-0.9 1.3-1.7 0.6-0.8 1.3-1.7c6.2-8 13.5-16 15.7-25.8 1.2-5.1 3.7-9.7 6.2-14.3 1.4-2.7 3-5.5 5.3-7.5q0.5-0.3 0.9-0.7 0.5-0.3 0.9-0.7 0.5-0.4 0.9-0.8 0.4-0.4 0.8-0.8c1.7-2.1 1.7-5.1 2.7-7.6 0.5-1.3 1.3-2.5 1.7-3.8 0-0.2 0-0.3 0.1-0.4q0-0.6 0.1-1.1 0.1-0.5 0.1-1 0-0.5 0.1-1 0-0.5 0-1.1c0-0.4 0.1-0.8 0.1-1.1q0.2-1.5 0.6-3 0.3-1.4 0.7-2.9 0.4-1.4 1-2.8 0.5-1.4 1.1-2.8 0.3-0.7 0.6-1.4-1.7-1-3.3-2.1-1.6-1.2-3.2-2.5-1.5-1.3-2.8-2.8-1.4-1.4-2.7-3-0.4-0.5-0.8-1-0.4-0.5-0.7-1.1-0.4-0.5-0.7-1.1-0.4-0.6-0.7-1.2c-2-4.1-2.5-8.7-3.5-13.2-2.3-10.7-7.6-20.7-8.3-31.7-0.3-3.3 0-6.7-1.2-9.9q-0.1-0.3-0.3-0.6-0.1-0.3-0.2-0.6-0.2-0.3-0.3-0.6-0.2-0.4-0.3-0.7-0.3-0.5-0.6-1l-0.2-0.3-0.5-1-0.8 0.6q-7.7 6-15.5 11.8-7.9 5.7-15.9 11.2-8.1 5.5-16.3 10.7-8.2 5.3-16.6 10.2l-1.9 1.2q-0.4 0.2-0.7 0.4-0.4 0.2-0.7 0.5-0.3 0.2-0.6 0.5-0.3 0.3-0.6 0.6-0.1 0.2-0.2 0.4c-0.4 1-0.6 2-1 3-0.9 2.3-3.2 3.8-5.5 4.5q-1.6 0.4-3.3 0.5-1.6 0.1-3.2-0.1-1.7-0.2-3.2-0.8-1.6-0.5-3-1.3c-0.5-0.2-1-0.5-1.4-0.8q-0.5 0.3-0.9 0.5-0.5 0.2-0.9 0.4-0.5 0.2-1 0.4-0.4 0.2-0.9 0.3c-4 1.2-8.2 1.1-12.4 1.1-4.1 0-8.3 0-12.2 1.4-2.7 0.9-5.2 2.3-7.9 2.5q-0.1 0-0.3 0-0.1 0-0.2 0-0.1 0-0.2 0-0.1 0-0.3 0-0.5-0.1-1.1-0.2-0.6-0.1-1.1-0.3-0.6-0.2-1.2-0.4-0.5-0.2-1-0.4l-0.8-0.4q-0.2-0.1-0.4-0.2-0.1 0-0.3-0.1-0.1-0.1-0.3-0.2-0.1-0.1-0.3-0.2-0.1-0.1-0.3-0.2-0.2-0.1-0.3-0.2-0.2-0.1-0.3-0.3-0.2-0.1-0.3-0.2-0.2-0.2-0.4-0.5-0.1-0.2-0.3-0.4-0.1-0.3-0.2-0.5-0.1-0.3-0.2-0.5-0.1-0.2-0.1-0.4 0-0.2 0-0.4 0-0.2 0-0.4 0-0.2 0.1-0.4 0-0.1 0-0.2 0.1-0.1 0.1-0.2 0.1 0 0.1-0.1 0.1-0.1 0.1-0.1 0.1-0.1 0.2-0.1 0 0 0.1 0 0.1-0.1 0.2-0.1 0 0 0.1 0 0.4 0 0.9 0 0.4 0 0.8 0.1 0.5 0 0.9 0.1 0.4 0 0.8 0.1 0.3 0 0.5 0.1 0.3 0 0.5 0 0.3 0 0.5 0 0.3 0 0.5 0h0.4q0.4 0 0.9-0.2 0.4-0.1 0.8-0.3 0.4-0.2 0.7-0.5 0.3-0.3 0.6-0.7 0 0 0.1-0.1 0-0.1 0-0.1 0.1-0.1 0.1-0.1 0-0.1 0.1-0.2 0-0.1 0-0.2 0.1-0.1 0.1-0.2 0-0.1 0-0.2 0-0.1 0-0.3 0 0 0 0 0 0 0-0.1 0 0 0 0 0-0.1 0-0.1-0.6-0.3-1.2-0.6-0.3-0.2-0.6-0.3l-0.1-0.1q-0.2-0.1-0.3-0.2-0.1-0.1-0.2-0.2-0.2-0.1-0.3-0.2-0.1-0.1-0.2-0.2-0.1-0.1-0.2-0.2 0-0.1-0.1-0.2-0.1 0-0.1-0.1-0.1-0.1-0.1-0.2-0.1-0.1-0.2-0.3-0.1-0.1-0.2-0.3-0.1-0.1-0.1-0.3-0.1-0.1-0.1-0.3-0.3-0.1-0.7-0.1-0.3 0-0.6 0-0.3 0-0.6 0.1-0.3 0-0.6 0.1c-1.1 0.3-2.2 0.9-3.3 1.1q-0.2 0.1-0.4 0.1-0.2 0-0.4 0-0.2 0-0.4 0-0.2-0.1-0.4-0.1c-1.6-0.6-2.2-2.5-2.5-4.1q-0.1-0.5-0.2-1 0-0.2 0-0.4 0-0.3 0-0.5 0-0.2 0-0.5 0-0.2 0-0.4 0.2-0.6 0.5-1 0.2-0.5 0.6-1 0.3-0.4 0.7-0.8 0.4-0.4 0.9-0.7l3.2-2.7 0.3-0.2c0-0.3-0.1-0.5-0.2-0.8q0-0.3 0-0.5 0-0.2 0-0.5 0-0.2 0-0.4 0-0.3 0-0.5 0.2-0.5 0.5-1 0.2-0.5 0.6-0.9 0.3-0.4 0.7-0.8 0.4-0.4 0.9-0.7l7.2-6.1c1.4-1.2 2.9-2.4 4.6-2.5 2.7-0.2 4.8 2 6.7 3.8 2.5 2.2 5.5 4 8.8 4.2q0.6 0 1.2 0 0.6 0 1.2-0.1 0.6-0.1 1.2-0.2 0.5-0.2 1.1-0.3l0.8-0.3q-0.2-0.6-0.5-1.1-0.4-1-0.9-1.9c4.3-0.3 8.2-2.6 11.4-5.4 3.2-2.8 6-6.1 9.3-8.9 3.5-3 7.5-5.2 11.1-8.1 8.3-6.7 13.8-16.6 22.7-22.5 3.1-2.1 6.6-3.8 8.7-6.8 0.7-1 1.2-2 1.8-3 2.2-3 5.8-4.4 8.8-6.5 3-2.1 5.7-5.1 8.1-8 1.7-2.1 3.5-4.2 5.2-6.4 1.5-2.8 2.8-5.8 4.4-8.6q0.5-0.9 1-1.8 0.6-0.8 1.2-1.7 0.6-0.8 1.2-1.6 0.6-0.8 1.3-1.6 0.6-1.2 1.3-2.4c0.4-0.8 0.8-1.3 1.2-2q0.4-0.6 0.9-1.3c-0.9-1.6-1.8-3-2.2-3.6l-0.2-0.3q-0.3-0.3-0.7-0.7-0.3-0.3-0.7-0.6-0.3-0.4-0.7-0.7-0.3-0.3-0.7-0.6-0.4-0.1-0.8-0.2-0.4 0-0.8-0.1-0.4-0.1-0.8-0.2-0.3-0.1-0.7-0.2c-3.1-0.8-6-2.2-8.6-3.9-2.7-1.8-5-4-6.9-6.5-1.9-2.6-3.4-5.4-4.5-8.4-1-3-1.5-6.2-1.5-9.3q0-0.1 0-0.1 0 0 0 0 0 0 0 0 0 0 0 0 0-1.8 0.2-3.5 0.2-1.7 0.6-3.3 0.4-1.7 1-3.3 0.6-1.6 1.4-3.1 0.6-1.2 1.4-2.4-0.2-0.1-0.4-0.1-0.1-0.1-0.3-0.1-0.2-0.1-0.3-0.2-0.2-0.1-0.4-0.1-0.2-0.2-0.5-0.3-0.3-0.2-0.5-0.4-0.2-0.2-0.4-0.4-0.2-0.2-0.4-0.5-0.2-0.2-0.3-0.4-0.1-0.2-0.2-0.5-0.1-0.2-0.2-0.5-0.1-0.2-0.1-0.5-0.1-0.6 0-1.2 0-0.7 0.1-1.3 0-0.6 0.2-1.2 0.2-0.6 0.4-1.1 0.1-0.3 0.2-0.6 0.1-0.3 0.3-0.5 0.1-0.3 0.2-0.6 0.1-0.2 0.2-0.5 0.1 0 0.1 0 0-0.1 0-0.1 0 0 0 0 0 0 0 0c4.5-9 14-14.6 23.5-15 10.3-0.4 20.3 4.5 28.4 11.4q0.9 0.7 1.8 1.5 0.8 0.8 1.6 1.6 0.8 0.9 1.6 1.8 0.8 0.9 1.4 1.8c4.3 5.9 6.2 13.4 6.7 20.9q0.1 0.8 0.2 1.7 0 0.9 0 1.7 0 0.9-0.1 1.8-0.1 0.8-0.2 1.7 0 0.3-0.1 0.6 0 0.3-0.1 0.6 0 0.3-0.1 0.6-0.1 0.3-0.2 0.6-0.2 0.7-0.5 1.4c-0.1 0.5-0.2 0.7-0.4 1v0.1q-0.2 0.4-0.5 0.9l-0.1 0.1-0.1 0.2q0.1 0.3 0.2 0.6 0.2 0.3 0.3 0.6h0.1c2 0.1 3.9 0.4 5.9 0.6q0.4 0 0.7 0 0.4 0 0.8 0.1 0.3 0.1 0.7 0.1 0.3 0.1 0.7 0.2c2 0.6 3.5 2.1 5.2 3.2 4.1 3 9.2 4.4 13.3 7.4 6 4.5 9 11.9 12.7 18.5 4.8 8.9 12.6 16.4 16 25.9q2.4 6.5 4.7 13c3.1 8.4 6.2 16.9 10.3 24.8 5.8 11.1 13.7 21 18.3 32.6q0.2 0.5 0.5 0.9 0.2 0.4 0.5 0.7 0.3 0.3 0.7 0.6 0.4 0.3 0.8 0.5 2.4 3.4 4.6 6.8 2.3 3.5 4.4 7 2.1 3.5 4 7.1 2 3.6 3.8 7.3c2.6 5.2 5 10.6 5.8 16.4q0.2 1.9 0.2 3.8 0.1 1.9-0.1 3.8-0.1 2-0.5 3.9-0.3 1.9-0.9 3.7-0.3 1.1-0.6 2.2-0.3 1.1-0.7 2.2-0.4 1.1-0.8 2.1-0.4 1.1-0.8 2.2-0.2 0.3-0.3 0.7-0.2 0.4-0.3 0.8-0.1 0.4-0.2 0.8-0.1 0.4-0.2 0.8 0 0.1 0 0.3c-0.2 1.9 0.5 3.8 0.7 5.7q0.1 0.6 0.1 1.2 0 0.6-0.1 1.1 0 0.6-0.2 1.2-0.1 0.6-0.3 1.1-0.1 0.4-0.2 0.7-0.3 0.4-0.5 0.9-0.2 0.4-0.4 0.9-0.2 0.4-0.4 0.9-0.1 0.5-0.3 0.9 0 0.1 0 0.2 0 0 0 0.1-0.1 0-0.1 0.1 0 0 0 0.1c-0.3 2.2 0.5 4.4 1 6.5 1.8 7.9 1.5 16 1 24-0.2 4 3 7.2 5.7 10.2 5 5.5 8.9 12 12.7 18.4q0.8 1.3 1.5 2.5 0.7 1.3 1.3 2.6 0.7 1.3 1.3 2.6 0.6 1.3 1.1 2.7c1.4 4.1 2 8.5 2.8 12.7 2.5 13.2 10.8 24.9 13.1 38.1q0.4 2.3 1.1 4.5 0.7 2.1 1.7 4.2 0.9 2.1 2.2 4 1.2 2 2.7 3.7 0.5 0.5 0.9 0.9 0.5 0.5 0.9 1 0.4 0.5 0.8 1 0.4 0.6 0.8 1.1 0.2 0.4 0.5 0.8 0.2 0.5 0.4 0.9 0.2 0.5 0.4 1 0.2 0.4 0.3 0.9 0.4 1.1 0.6 2.2 0.3 1.1 0.5 2.3 0.2 1.1 0.2 2.3 0.1 1.2 0.1 2.3-0.1 0.6-0.1 1.1 0 0.6 0 1.2 0.1 0.5 0.1 1.1 0.1 0.5 0.2 1.1c1 3 4.3 4.7 5.7 7.6 1.4 2.9 0.4 6.6 1 9.9q0.2 1 0.5 1.9 0.4 0.9 0.9 1.8 0.5 0.8 1.2 1.6 0.6 0.7 1.4 1.3c-0.8 0.7-1.6 1.4-2.5 2q0.3 0.3 0.6 0.5 0.3 0.3 0.5 0.6 0.3 0.2 0.5 0.5 0.3 0.3 0.5 0.6 0.1 0.2 0.3 0.4 0.1 0.3 0.2 0.5 0.2 0.2 0.3 0.4 0.1 0.3 0.2 0.5c1.3 3.1 1.3 6.7 2.4 10 0.5 1.4 1.1 2.8 0.7 4.2q0 0.1-0.1 0.3 0 0.1-0.1 0.3 0 0.1 0 0.3-0.1 0.1-0.1 0.3c0 0.9 0.9 1.5 1.3 2.3q0.1 0.3 0.1 0.7 0 0.3 0 0.6-0.1 0.3-0.3 0.6-0.1 0.3-0.3 0.5z"/>
	<path class="s5" d="m910.8 238.6c6.2-1.6 11.6-5.1 17-8.5l18.6-11.8c-5.1-0.4-9.4-4-12-8.4-2.6-4.4-3.7-9.4-4.6-14.4-8 3.1-14.9 8.4-21.4 14-2.5 2.2-8 5.5-8.8 9-0.7 3.4 4.3 6.2 6.2 8.6 0.7 0.7 7 11 5 11.5z"/>
	<path class="s2" d="m910.8 238.6c6.2-1.6 11.6-5.1 17-8.5l18.6-11.8c-5.1-0.4-9.4-4-12-8.4-2.6-4.4-3.7-9.4-4.6-14.4-8 3.1-14.9 8.4-21.4 14-2.5 2.2-8 5.5-8.8 9-0.7 3.4 4.3 6.2 6.2 8.6 0.7 0.7 7 11 5 11.5z"/>
	<path class="s5" d="m809.1 336.5c-3.2 1.7-6.7 3.4-10.4 3.2-3.3-0.2-6.3-2-8.8-4.2-2-1.8-4-3.9-6.7-3.8-1.7 0.2-3.2 1.4-4.6 2.5l-7.2 6.1q-0.5 0.3-0.9 0.6-0.4 0.4-0.7 0.8-0.3 0.5-0.6 1-0.3 0.4-0.5 1 0 0.3 0 0.7 0 0.3 0 0.7 0 0.3 0.1 0.7 0 0.3 0.1 0.7c0.3 1.6 0.9 3.5 2.5 4 1.5 0.6 3.2-0.6 4.9-1q0.7-0.2 1.5-0.2 0.8 0 1.5 0.2 0.8 0.2 1.4 0.6 0.7 0.5 1.2 1 0.3 0.2 0.4 0.5 0.2 0.2 0.3 0.5 0.2 0.3 0.2 0.6 0.1 0.3 0.1 0.6c0 1.8-2 3-3.8 3.1-1.8 0.1-3.6-0.5-5.4-0.4q-0.2 0-0.3 0-0.2 0.1-0.3 0.2-0.2 0.1-0.3 0.2 0 0.2-0.1 0.3 0 0.5 0 1 0 0.5 0.2 0.9 0.1 0.5 0.4 0.9 0.3 0.4 0.6 0.7 0.4 0.3 0.8 0.6 0.3 0.3 0.8 0.6 0.4 0.2 0.8 0.4 0.4 0.3 0.9 0.4 0.5 0.3 1 0.5 0.6 0.2 1.2 0.4 0.5 0.1 1.1 0.2 0.6 0.2 1.1 0.2c3.1 0.2 5.9-1.5 8.8-2.5 4-1.3 8.2-1.3 12.3-1.3 4.2 0 8.4 0.1 12.3-1.1 4-1.2 7.8-3.7 9.3-7.6q0.1-0.1 0.1-0.2 0.1-0.2 0.1-0.3 0-0.2 0-0.3 0-0.2 0-0.3-0.1-0.2-0.2-0.3 0-0.2-0.1-0.3-0.1-0.1-0.3-0.2-0.1-0.1-0.3-0.2c-5.5-4.2-7.8-9.2-14.1-12.2z"/>
	<path class="s2" d="m809.1 336.5c-3.2 1.7-6.7 3.4-10.4 3.2-3.3-0.2-6.3-2-8.8-4.2-2-1.8-4-3.9-6.7-3.8-1.7 0.2-3.2 1.4-4.6 2.5l-7.2 6.1q-0.5 0.3-0.9 0.6-0.4 0.4-0.7 0.8-0.3 0.5-0.6 1-0.3 0.4-0.5 1 0 0.3 0 0.7 0 0.3 0 0.7 0 0.3 0.1 0.7 0 0.3 0.1 0.7c0.3 1.6 0.9 3.5 2.5 4 1.5 0.6 3.2-0.6 4.9-1q0.7-0.2 1.5-0.2 0.8 0 1.5 0.2 0.8 0.2 1.4 0.6 0.7 0.5 1.2 1 0.3 0.2 0.4 0.5 0.2 0.2 0.3 0.5 0.2 0.3 0.2 0.6 0.1 0.3 0.1 0.6c0 1.8-2 3-3.8 3.1-1.8 0.1-3.6-0.5-5.4-0.4q-0.2 0-0.3 0-0.2 0.1-0.3 0.2-0.2 0.1-0.3 0.2 0 0.2-0.1 0.3 0 0.5 0 1 0 0.5 0.2 0.9 0.1 0.5 0.4 0.9 0.3 0.4 0.6 0.7 0.4 0.3 0.8 0.6 0.3 0.3 0.8 0.6 0.4 0.2 0.8 0.4 0.4 0.3 0.9 0.4 0.5 0.3 1 0.5 0.6 0.2 1.2 0.4 0.5 0.1 1.1 0.2 0.6 0.2 1.1 0.2c3.1 0.2 5.9-1.5 8.8-2.5 4-1.3 8.2-1.3 12.3-1.3 4.2 0 8.4 0.1 12.3-1.1 4-1.2 7.8-3.7 9.3-7.6q0.1-0.1 0.1-0.2 0.1-0.2 0.1-0.3 0-0.2 0-0.3 0-0.2 0-0.3-0.1-0.2-0.2-0.3 0-0.2-0.1-0.3-0.1-0.1-0.3-0.2-0.1-0.1-0.3-0.2c-5.5-4.2-7.8-9.2-14.1-12.2z"/>
	<path class="s6" d="m926.3 229.9q-1.2-0.8-2.5-1.3-1.3-0.4-2.7-0.6-1.4-0.1-2.7 0-1.4 0.2-2.7 0.6-1.3 0.5-2.6 1.1-1.2 0.6-2.4 1.4-1.1 0.8-2.2 1.7-1 0.9-1.9 1.9-1 1-1.8 2-0.9 1-1.7 2-0.8 1.1-1.6 2.2-0.7 1.1-1.4 2.3c-1.7 3-3 6.1-4.7 9.1-3 5.4-6.9 10.1-10.8 14.8-2.5 2.9-5 5.8-8.1 8-3.1 2.1-6.7 3.4-8.8 6.4-0.6 0.9-1.1 2-1.8 2.9-2.1 3.1-5.6 4.7-8.7 6.8-8.9 5.9-14.4 15.7-22.7 22.4-3.5 2.9-7.6 5.1-11.1 8.1-3.2 2.7-6 6-9.2 8.8-3.3 2.8-7.1 5.1-11.4 5.4 2.9 6.3 6.3 12.5 11.1 17.4 4.9 5 12.2 8.1 18.8 6.2 2.4-0.7 4.7-2.1 5.6-4.4q0.1-0.5 0.2-0.9 0.2-0.4 0.3-0.9 0.2-0.4 0.3-0.8 0.2-0.4 0.4-0.8 0.2-0.4 0.5-0.7 0.3-0.3 0.6-0.5 0.4-0.3 0.7-0.5 0.3-0.2 0.7-0.4 10-5.9 19.8-12.1 9.8-6.2 19.3-12.8 9.5-6.6 18.8-13.6 9.2-6.9 18.2-14.2c6.5-5.3 12.8-10 19.4-15q0.9-0.7 1.8-1.3 0.8-0.7 1.7-1.4 0.8-0.7 1.5-1.5 0.8-0.8 1.6-1.6c1.3-1.6 2.5-3.4 3.3-5.4 0.8-1.9 1.4-4 1.6-6.1 0.2-2.2 0.2-4.3-0.2-6.4-0.4-2.1-1.1-4.1-2.1-6q-0.7-1.1-1.4-2.2-0.7-1-1.4-2.1-0.8-1-1.6-2-0.8-1-1.6-1.9-1.6-2-3.3-3.9-1.6-1.9-3.5-3.7-1.8-1.8-3.7-3.4-1.9-1.6-3.9-3.1z"/>
	<path class="s2" d="m926.3 229.9q-1.2-0.8-2.5-1.3-1.3-0.4-2.7-0.6-1.4-0.1-2.7 0-1.4 0.2-2.7 0.6-1.3 0.5-2.6 1.1-1.2 0.6-2.4 1.4-1.1 0.8-2.2 1.7-1 0.9-1.9 1.9-1 1-1.8 2-0.9 1-1.7 2-0.8 1.1-1.6 2.2-0.7 1.1-1.4 2.3c-1.7 3-3 6.1-4.7 9.1-3 5.4-6.9 10.1-10.8 14.8-2.5 2.9-5 5.8-8.1 8-3.1 2.1-6.7 3.4-8.8 6.4-0.6 0.9-1.1 2-1.8 2.9-2.1 3.1-5.6 4.7-8.7 6.8-8.9 5.9-14.4 15.7-22.7 22.4-3.5 2.9-7.6 5.1-11.1 8.1-3.2 2.7-6 6-9.2 8.8-3.3 2.8-7.1 5.1-11.4 5.4 2.9 6.3 6.3 12.5 11.1 17.4 4.9 5 12.2 8.1 18.8 6.2 2.4-0.7 4.7-2.1 5.6-4.4q0.1-0.5 0.2-0.9 0.2-0.4 0.3-0.9 0.2-0.4 0.3-0.8 0.2-0.4 0.4-0.8 0.2-0.4 0.5-0.7 0.3-0.3 0.6-0.5 0.4-0.3 0.7-0.5 0.3-0.2 0.7-0.4 10-5.9 19.8-12.1 9.8-6.2 19.3-12.8 9.5-6.6 18.8-13.6 9.2-6.9 18.2-14.2c6.5-5.3 12.8-10 19.4-15q0.9-0.7 1.8-1.3 0.8-0.7 1.7-1.4 0.8-0.7 1.5-1.5 0.8-0.8 1.6-1.6c1.3-1.6 2.5-3.4 3.3-5.4 0.8-1.9 1.4-4 1.6-6.1 0.2-2.2 0.2-4.3-0.2-6.4-0.4-2.1-1.1-4.1-2.1-6q-0.7-1.1-1.4-2.2-0.7-1-1.4-2.1-0.8-1-1.6-2-0.8-1-1.6-1.9-1.6-2-3.3-3.9-1.6-1.9-3.5-3.7-1.8-1.8-3.7-3.4-1.9-1.6-3.9-3.1z"/>
	<path class="s3" d="m883.3 600.8c-1.8 1-3.9 1.6-5.1 3.2-0.4 0.5-0.7 1.1-1.2 1.6-1.3 1.6-3.6 1.7-5.5 2.6-1.5 0.7-2.7 2-4.2 2.4q-0.4 0.1-0.7 0.1-0.4 0.1-0.8 0.1-0.3 0-0.7 0-0.3 0-0.7 0l-9.7-0.3c-3.1-0.1-6.7 0.1-8.5 2.6q-0.2 0.3-0.4 0.7-0.2 0.3-0.4 0.7-0.1 0.4-0.2 0.8-0.1 0.4-0.2 0.8c-0.8 2.9-1.4 6.1 0.2 8.6 1.9 3 6 3.6 9.5 3.8q5.2 0.3 10.3 0.4 5.2 0.1 10.3 0 5.2-0.1 10.3-0.4 5.1-0.3 10.3-0.8 0.7-0.1 1.4-0.1 0.7-0.1 1.4-0.1 0.7 0 1.4 0 0.7 0 1.3 0c1.5 0.1 3 0.5 4.4 0.7 7.4 1.3 14.9 0.5 22.4-0.2q0.5 0 0.9-0.1 0.5-0.1 1-0.2 0.4-0.1 0.9-0.2 0.4-0.1 0.9-0.3 0.4-0.2 0.8-0.5 0.4-0.2 0.7-0.6 0.3-0.4 0.5-0.8 0.2-0.4 0.3-0.9c0.3-2-1.6-3.8-1.8-5.8-0.2-1.5 0.5-3.1-0.3-4.4q-0.1-0.1-0.2-0.2-0.1-0.2-0.3-0.3-0.1-0.1-0.2-0.2-0.2-0.2-0.3-0.3c-1.3-1.4-1.7-3.4-2.1-5.3l-1.7-10.3q0-0.2-0.1-0.5 0-0.3-0.2-0.5-0.1-0.3-0.2-0.5-0.2-0.2-0.3-0.4-0.2-0.1-0.3-0.2-0.2-0.1-0.3-0.1-0.2-0.1-0.3-0.1-0.2-0.1-0.4-0.1c-7.6-1.7-15.4-0.2-23 0.8q-1.4 0.2-2.9 0.3-1.5 0.2-3 0.3-1.4 0-2.9 0-1.5 0-2.9 0c-1.8-0.1-2.4-0.3-3.7 0.8-1.3 1.1-1.9 2.5-3.5 3.4z"/>
	<path class="s3" d="m1067.3 613.2q-0.5 0.3-1 0.5-0.5 0.3-1.1 0.5-0.5 0.2-1.1 0.4-0.5 0.1-1.1 0.3-5.9 1.7-11.7 3.5-0.4 0.1-0.8 0.3-0.4 0.1-0.7 0.3-0.4 0.2-0.7 0.4-0.4 0.2-0.7 0.4c-1.4 1.2-1.7 3.2-1.8 5q-0.1 0.4-0.1 0.8 0 0.4 0.1 0.8 0 0.3 0.1 0.7 0.1 0.4 0.2 0.7 0.2 0.4 0.4 0.7 0.2 0.3 0.5 0.6 0.3 0.2 0.5 0.5 0.3 0.2 0.6 0.4c4.5 3.4 10.4 4.5 16 4.5 5.6 0 11.2-1 16.8-1.1 6.8-0.2 13.8 0.8 20.3-1.1q0.5-0.2 0.9-0.3 0.5-0.2 1-0.3 0.5-0.1 1-0.2 0.5-0.1 1-0.2 0.3 0 0.6 0 0.3 0 0.7 0.1 0.3 0 0.6 0 0.4 0.1 0.7 0.1 1.3 0.1 2.6 0.1 1.3 0 2.6-0.1 1.3-0.1 2.6-0.3 1.3-0.3 2.6-0.7 0.4 0 0.7-0.2 0.4-0.1 0.8-0.3 0.3-0.1 0.6-0.4 0.4-0.2 0.7-0.4 0.3-0.3 0.5-0.6 0.2-0.3 0.3-0.7 0.1-0.4 0-0.8 0-0.4-0.1-0.7c-0.4-0.9-1.3-1.4-1.3-2.3q0-0.2 0.1-0.3 0-0.2 0-0.4 0.1-0.1 0.1-0.3 0.1-0.1 0.1-0.3c0.4-1.3-0.2-2.8-0.7-4.1-1.3-3.9-1.1-8.3-3.4-11.7-2.3-3.3-6.5-4.7-10.5-5.2q-1.3-0.2-2.5-0.3-1.2 0-2.5 0-1.2 0-2.4 0.2-1.3 0.1-2.5 0.3c-3.6 0.8-7.1 2.5-10.6 3.5q-1.6 0.4-3.2 0.7-1.6 0.3-3.2 0.5-1.6 0.2-3.2 0.2-1.6 0-3.2-0.2c-2.9-0.2-1.9 0.2-2.9 2.6q-0.2 0.6-0.6 1.2-0.3 0.5-0.7 1-0.5 0.5-1 0.9-0.5 0.4-1 0.8z"/>
	<path fill-rule="evenodd" class="s5" d="m907.5 224.8c-16 0-29-13-29-29 0-16.1 13-29 29-29 16 0 29 12.9 29 29 0 16-13 29-29 29z"/>
	<path class="s6" d="m1117.7 602.8c-9 7.8-21.1 11.1-33 11.3-5 0-10.2-0.5-14.4-3.1-0.3-1.7-0.4-3.4-0.7-5.1-5.2-1.1-9.2-5.3-11.7-9.9-2.5-4.7-3.8-9.9-5.6-14.8-2.9-7.5-7-14.5-11.2-21.3-3.8-6.4-7.7-12.7-12-18.7-2.9-4-6-7.8-8.9-11.8q-3-4.1-5.6-8.6-2.6-4.4-4.7-9.1-2.2-4.6-3.8-9.5-1.7-4.8-2.9-9.8-0.2-1-0.4-2-0.2-0.9-0.5-1.8-0.2-1-0.5-1.9-0.3-1-0.7-1.9c-1.7-4.1-4.8-7.5-7.3-11.4q-1-1.5-1.8-3.1-0.8-1.6-1.5-3.3-0.6-1.7-1.1-3.5-0.5-1.8-0.9-3.5c-0.4-2.8-1.3-5.7-4-6-5.8 11.2-11.6 22.5-20.3 31.6q-0.5 0.5-1 1-0.5 0.5-0.9 1-0.5 0.5-1 1.1-0.4 0.5-0.8 1.1-0.4 0.6-0.7 1.1-0.3 0.6-0.6 1.2-0.3 0.6-0.6 1.1-0.3 0.6-0.5 1.2-0.5 1.1-1.1 2.1-0.6 1-1.3 2-0.6 1-1.4 1.9-0.7 0.9-1.5 1.7-0.7 0.8-1.5 1.4-0.8 0.6-1.6 1-0.9 0.5-1.8 0.9-1 0.3-1.9 0.5 0.7 3.5 0.8 7.2 0.2 3.6-0.2 7.3-0.5 3.6-1.4 7.1-1 3.5-2.5 6.9c-1.2 2.6-2.7 5.1-3.8 7.8-4.7 11-3.6 23.4-4.1 35.3q0 1-0.1 1.9 0 0.9-0.1 1.9-0.2 0.9-0.3 1.8-0.2 0.9-0.4 1.9c-1.2 4.8-3.7 10-2.5 14.9-12.5 4.8-26.4 4.5-39.7 2.5q-1-0.1-1.9-0.3-1-0.2-1.9-0.5-1-0.3-1.9-0.6-0.9-0.4-1.7-0.9-0.7-0.5-1.4-1-0.7-0.6-1.3-1.2-0.6-0.6-1.1-1.3-0.6-0.6-1.1-1.3-0.2-0.2-0.3-0.5-0.2-0.2-0.4-0.4-0.1-0.3-0.2-0.5-0.1-0.3-0.2-0.6c-0.5-2.2 2-4 3.2-6 1.1-2 1.4-5.1-0.3-6.8 0.8-13.1 4.5-25.8 5.3-39 0.3-5.2 0.2-10.4 0.4-15.6 0.2-5.2 0.8-10.3 1.4-15.4 1.3-11.7 4.5-23.1 4-34.9q0-1.4 0.1-2.7 0.1-1.3 0.5-2.7 0.3-1.3 0.7-2.5 0.5-1.3 1.1-2.5 0.6-0.9 1.2-1.8 0.5-0.9 1.2-1.7 0.6-0.9 1.2-1.7 0.7-0.9 1.3-1.7c6.2-7.9 13.6-15.8 15.8-25.6 1.1-5.1 3.6-9.7 6.1-14.2 1.4-2.8 3-5.5 5.3-7.5q0.5-0.4 0.9-0.7 0.5-0.4 0.9-0.7 0.5-0.4 0.9-0.8 0.4-0.4 0.8-0.8c1.7-2.1 1.7-5 2.7-7.5 0.5-1.3 1.3-2.5 1.7-3.9q0.1-0.5 0.1-1.1 0.1-0.6 0.2-1.1 0-0.6 0.1-1.1 0-0.6 0-1.2c0.3-4.8 2.2-9.5 4.1-13.9q-1.7-1-3.3-2.2-1.6-1.1-3.1-2.4-1.6-1.3-2.9-2.8-1.4-1.4-2.7-3-0.4-0.5-0.8-1-0.4-0.5-0.7-1.1-0.4-0.5-0.7-1.1-0.4-0.6-0.7-1.1c-2-4.1-2.5-8.7-3.5-13.2-2.3-10.6-7.6-20.6-8.3-31.4-0.2-3.3 0-6.8-1.2-9.9q-0.2-0.5-0.4-1-0.2-0.5-0.4-1-0.3-0.4-0.5-0.9-0.3-0.5-0.5-0.9-0.3-0.5-0.5-1-0.3-0.5-0.4-0.9-0.2-0.5-0.4-1-0.2-0.5-0.3-1c-0.6-3 0.2-6 0-9-0.2-2.7-1.4-5.2-1.9-7.7q-0.3-1.3-0.4-2.6-0.1-1.3-0.1-2.5-0.1-1.3 0-2.6 0-1.3 0.2-2.5c0.2-4 1.1-8.2 0.8-12.1q-0.5-4.9 0.2-9.8 0.6-4.9 2.2-9.5 1.6-4.7 4.2-8.9 2.5-4.2 5.9-7.8l0.2-0.2c1.9-2 4-3.8 5.8-5.9 2.3-2.8 4-6.2 6.4-8.9 1.1-1.3 2.3-2.4 3.4-3.6q0.4-0.5 0.7-1 0.4-0.4 0.8-0.9 0.4-0.4 0.9-0.9 0.4-0.4 0.8-0.8 0.5-0.5 1-0.8 0.6-0.2 1.1-0.4 0.6-0.2 1.3-0.2 0.6 0 1.2 0.2 0 0.5 0.2 1.1 0.1 0.5 0.3 1 0.1 0.6 0.4 1.1 0.2 0.5 0.4 1c2.1 0.2 4 0.5 6 0.6q0.4 0 0.8 0.1 0.3 0 0.7 0.1 0.3 0 0.7 0.1 0.3 0.1 0.7 0.2c1.9 0.6 3.5 2 5.2 3.2 4.1 2.9 9.2 4.3 13.3 7.3 6 4.4 9 11.8 12.6 18.4 4.8 8.8 12.6 16.3 16 25.8l4.7 12.8c3.1 8.4 6.2 16.8 10.3 24.7 5.8 11 13.7 20.9 18.3 32.4q0.2 0.4 0.4 0.8 0.3 0.4 0.6 0.8 0.3 0.3 0.7 0.6 0.3 0.3 0.7 0.5 2.4 3.3 4.7 6.7 2.2 3.4 4.3 7 2.1 3.5 4.1 7 1.9 3.6 3.8 7.3c2.5 5.1 5 10.5 5.7 16.2 1.1 8.1-1.1 16.2-4.2 23.8q-0.1 0.4-0.3 0.8-0.2 0.4-0.3 0.8-0.1 0.5-0.2 0.9-0.1 0.4-0.2 0.9c-0.2 1.9 0.6 3.8 0.8 5.7q0 0.6 0 1.3 0 0.7-0.1 1.3-0.1 0.7-0.3 1.4-0.1 0.6-0.4 1.2-0.2 0.5-0.4 0.9-0.3 0.4-0.5 0.9-0.2 0.5-0.3 0.9-0.2 0.5-0.4 0.9c-0.5 2.3 0.4 4.7 1 7 1.7 7.8 1.4 15.8 1 23.8-0.3 4 3 7.2 5.7 10.1 5 5.5 8.9 11.9 12.6 18.3q0.8 1.3 1.5 2.5 0.7 1.3 1.4 2.6 0.6 1.2 1.2 2.6 0.6 1.3 1.1 2.6c1.4 4.1 2 8.4 2.8 12.7 2.5 13.1 10.8 24.7 13.1 37.8q0.4 2.3 1.1 4.5 0.7 2.1 1.7 4.2 0.9 2.1 2.2 4 1.2 1.9 2.7 3.6 0.5 0.5 0.9 1 0.4 0.4 0.9 0.9 0.4 0.5 0.8 1.1 0.4 0.5 0.8 1 0.2 0.4 0.4 0.9 0.3 0.4 0.5 0.8 0.2 0.5 0.4 1 0.1 0.4 0.3 0.9 0.4 1.1 0.6 2.2 0.3 1.1 0.5 2.3 0.1 1.1 0.2 2.3 0.1 1.1 0.1 2.3-0.1 0.5-0.1 1.1 0 0.5 0 1.1 0 0.5 0.1 1.1 0.1 0.5 0.2 1.1c1 3 4.3 4.7 5.7 7.6 1.4 2.8 0.4 6.5 1 9.8q0.2 1 0.5 1.9 0.3 0.9 0.8 1.8 0.5 0.8 1.2 1.6 0.7 0.7 1.4 1.3z"/>
	<path class="s5" d="m815.1 327.5c-3.2 1.7-6.7 3.4-10.4 3.2-3.3-0.2-6.3-2-8.8-4.2-2-1.8-4-3.9-6.7-3.8-1.7 0.2-3.2 1.4-4.6 2.5l-7.2 6.1q-0.5 0.3-0.9 0.6-0.4 0.4-0.7 0.8-0.3 0.5-0.6 1-0.3 0.4-0.5 1 0 0.3 0 0.7 0 0.3 0 0.7 0 0.3 0.1 0.7 0 0.3 0.1 0.7c0.3 1.6 0.9 3.5 2.5 4 1.5 0.6 3.2-0.6 4.9-1q0.7-0.2 1.5-0.2 0.8 0 1.5 0.2 0.8 0.2 1.4 0.6 0.7 0.5 1.2 1 0.3 0.2 0.4 0.5 0.2 0.2 0.3 0.5 0.2 0.3 0.2 0.6 0.1 0.3 0.1 0.6c0 1.8-2 3-3.8 3.1-1.8 0.1-3.6-0.5-5.4-0.4q-0.2 0-0.3 0-0.2 0.1-0.3 0.2-0.2 0.1-0.3 0.2 0 0.2-0.1 0.3 0 0.5 0 1 0 0.5 0.2 0.9 0.1 0.5 0.4 0.9 0.3 0.4 0.6 0.7 0.4 0.3 0.8 0.6 0.3 0.3 0.8 0.6 0.4 0.2 0.8 0.4 0.4 0.3 0.9 0.4 0.5 0.3 1 0.5 0.6 0.2 1.2 0.4 0.5 0.1 1.1 0.2 0.6 0.2 1.1 0.2c3.1 0.2 5.9-1.5 8.8-2.5 4-1.3 8.2-1.3 12.3-1.3 4.2 0 8.4 0.1 12.3-1.1 4-1.2 7.8-3.7 9.3-7.6q0.1-0.1 0.1-0.2 0.1-0.2 0.1-0.3 0-0.2 0-0.3 0-0.2 0-0.3-0.1-0.2-0.2-0.3 0-0.2-0.1-0.3-0.1-0.1-0.3-0.2-0.1-0.1-0.3-0.2c-5.5-4.2-7.8-9.2-14.1-12.2z"/>
	<path class="s3" d="m893.4 177.9c-1.7 0.3-3.2 1.5-4.9 2.1q-0.8 0.4-1.6 0.5-0.9 0.1-1.8 0.1-0.9-0.1-1.7-0.3-0.9-0.2-1.7-0.6-0.3-0.2-0.5-0.3-0.3-0.2-0.5-0.4-0.2-0.2-0.5-0.4-0.2-0.2-0.4-0.4c-1.3-1.9-0.8-4.6 0-6.8 3.9-10.3 14.2-16.7 24.5-17.1 10.2-0.4 20.2 4.4 28.3 11.3q0.9 0.7 1.8 1.5 0.8 0.8 1.6 1.6 0.8 0.9 1.6 1.8 0.8 0.8 1.4 1.8c4.3 5.8 6.2 13.3 6.7 20.7q0.2 1.2 0.2 2.3 0 1.2-0.1 2.4 0 1.1-0.2 2.3-0.2 1.1-0.5 2.3-0.2 1.1-0.7 2.1-0.5 1-1.2 2-0.7 0.9-1.5 1.6-0.8 0.8-1.8 1.4c-2.9 1.4-6.3 1-9.2-0.4-2.9-1.4-5.4-3.6-7.9-5.8q-0.4-0.4-0.8-0.7-0.5-0.4-1-0.7-0.5-0.3-1-0.6-0.5-0.2-1.1-0.4-0.5-0.2-1.1-0.3-0.6 0-1.1 0.1-0.6 0.2-1.1 0.5-0.5 0.2-0.9 0.7c-1.3 1.6-1 4.2-2.2 6-1.2 1.7-3.8 2-5.9 2-2.2 0-4.3-0.2-5.6-1.9-1.2-1.6-1-3.8-0.6-5.8 0.5-1.9 1.2-3.8 1-5.8-0.4-4-3.9-6.5-5-10.1-0.7-2.5 0.9-3.5 0.7-5.7-0.1-1.9-2.2-2.8-3.7-2.6z"/>
	<path class="s2" d="m984.5 453.8v0.2c-5.7 11.2-11.6 22.5-20.3 31.6q-0.5 0.5-1 1-0.5 0.5-0.9 1-0.5 0.5-0.9 1.1-0.5 0.5-0.9 1.1-0.3 0.6-0.7 1.1-0.3 0.6-0.6 1.2-0.3 0.6-0.6 1.1-0.2 0.6-0.5 1.2-0.5 1.1-1.1 2.1-0.6 1-1.2 2-0.7 1-1.4 1.9-0.8 0.9-1.6 1.7l-7.2 3.7 23-120z"/>
	<path class="s2" d="m951.1 272.1q-0.8 0.8-1.6 1.6-0.7 0.8-1.5 1.5-0.9 0.7-1.7 1.4-0.9 0.6-1.8 1.3c-6.6 5-13 9.7-19.4 15q-7.7 6.3-15.7 12.3-0.3-0.4-0.5-0.9-0.2-0.5-0.4-1-0.2-0.5-0.4-1-0.1-0.5-0.3-1c-0.6-2.9 0.3-6 0-9-0.2-2.6-1.3-5.1-1.9-7.7q-0.2-1.2-0.3-2.5-0.2-1.3-0.2-2.6 0-1.2 0-2.5 0.1-1.3 0.2-2.6c0.3-4 1.1-8.1 0.8-12.1q-0.4-4.9 0.2-9.8 0.6-4.9 2.2-9.5 1.7-4.7 4.2-8.9 2.6-4.2 6-7.8l0.2-0.2q0.4-0.2 0.8-0.4 0.5-0.3 0.9-0.5 0.4-0.1 0.9-0.3 0.4-0.2 0.8-0.3 1.3-0.5 2.7-0.6 1.4-0.2 2.8 0 1.3 0.2 2.6 0.6 1.3 0.5 2.5 1.3 2 1.5 4 3.1 1.9 1.6 3.7 3.4 1.8 1.8 3.5 3.7 1.7 1.9 3.2 3.9 0.9 0.9 1.7 1.9 0.8 1 1.5 2 0.8 1.1 1.5 2.1 0.7 1.1 1.4 2.2c1 1.9 1.7 3.9 2 6 0.4 2.1 0.5 4.2 0.3 6.4-0.2 2.1-0.8 4.2-1.6 6.1-0.8 2-2 3.8-3.3 5.4z"/>
	<path class="s6" d="m932.3 220.9q-1.2-0.8-2.5-1.3-1.3-0.4-2.7-0.6-1.4-0.1-2.7 0-1.4 0.2-2.7 0.6-1.3 0.5-2.6 1.1-1.2 0.6-2.4 1.4-1.1 0.8-2.2 1.7-1 0.9-1.9 1.9-1 1-1.8 2-0.9 1-1.7 2-0.8 1.1-1.6 2.2-0.7 1.1-1.4 2.3c-1.7 3-3 6.1-4.7 9.1-3 5.4-6.9 10.1-10.8 14.8-2.5 2.9-5 5.8-8.1 8-3.1 2.1-6.7 3.4-8.8 6.4-0.6 0.9-1.1 2-1.8 2.9-2.1 3.1-5.6 4.7-8.7 6.8-8.9 5.9-14.4 15.7-22.7 22.4-3.5 2.9-7.6 5.1-11.1 8.1-3.2 2.7-6 6-9.2 8.8-3.3 2.8-7.1 5.1-11.4 5.4 2.9 6.3 6.3 12.5 11.1 17.4 4.9 5 12.2 8.1 18.8 6.2 2.4-0.7 4.7-2.1 5.6-4.4q0.1-0.5 0.2-0.9 0.2-0.4 0.3-0.9 0.2-0.4 0.3-0.8 0.2-0.4 0.4-0.8 0.2-0.4 0.5-0.7 0.3-0.3 0.6-0.5 0.4-0.3 0.7-0.5 0.3-0.2 0.7-0.4 10-5.9 19.8-12.1 9.8-6.2 19.3-12.8 9.5-6.6 18.8-13.6 9.2-6.9 18.2-14.2c6.5-5.3 12.8-10 19.4-15q0.9-0.7 1.8-1.3 0.8-0.7 1.7-1.4 0.8-0.7 1.5-1.5 0.8-0.8 1.6-1.6c1.3-1.6 2.5-3.4 3.3-5.4 0.8-1.9 1.4-4 1.6-6.1 0.2-2.2 0.2-4.3-0.2-6.4-0.4-2.1-1.1-4.1-2.1-6q-0.7-1.1-1.4-2.2-0.7-1-1.4-2.1-0.8-1-1.6-2-0.8-1-1.6-1.9-1.6-2-3.3-3.9-1.6-1.9-3.5-3.7-1.8-1.8-3.7-3.4-1.9-1.6-3.9-3.1z"/>
	<g style="opacity: .1">
		<path class="s7" d="m908.6 205.7c-2 0-4.3-0.1-5.6-1.8-1.2-1.6-1-3.8-0.6-5.8 0.5-1.9 1.2-3.8 1-5.8-0.4-4-3.9-6.5-5-10.2-0.7-2.4 0.9-3.4 0.7-5.6-0.1-1.9-2.2-2.8-3.7-2.6-1.7 0.3-3.2 1.5-4.9 2.1q-0.8 0.4-1.7 0.5-0.8 0.1-1.7 0.1-0.9-0.1-1.8-0.3-0.8-0.2-1.6-0.6-0.3-0.2-0.5-0.3-0.3-0.2-0.5-0.4-0.3-0.2-0.5-0.4-0.2-0.2-0.4-0.4c-1.3-1.9-0.8-4.6 0-6.8 0-0.1 0.1-0.1 0.1-0.2q-0.3 0.5-0.6 1-0.3 0.5-0.6 1.1-0.2 0.5-0.5 1-0.2 0.6-0.4 1.1c-0.8 2.2-1.3 4.9 0 6.8q0.2 0.2 0.4 0.4 0.2 0.2 0.5 0.4 0.2 0.2 0.5 0.4 0.2 0.1 0.5 0.3 0.8 0.4 1.6 0.6 0.9 0.2 1.8 0.3 0.9 0 1.7-0.1 0.9-0.1 1.7-0.5c1.7-0.6 3.2-1.8 4.9-2.1 1.5-0.2 3.6 0.7 3.7 2.6 0.2 2.2-1.4 3.2-0.7 5.6 1.1 3.7 4.6 6.2 5 10.2 0.2 2-0.5 3.9-1 5.8-0.4 2-0.6 4.2 0.6 5.8 1.3 1.7 3.6 1.8 5.6 1.8 2 0.1 4.6-0.1 5.9-2q0.2-0.3 0.4-0.7 0.1-0.4 0.3-0.8 0.1-0.3 0.2-0.7 0.1-0.4 0.2-0.8c-1.4 0.9-3.3 1.1-5 1z"/>
		<path class="s7" d="m941.9 205.4c-2.9 1.4-6.3 1-9.2-0.4-2.9-1.4-5.4-3.6-7.9-5.8q-0.4-0.4-0.8-0.7-0.5-0.4-1-0.7-0.5-0.3-1-0.6-0.5-0.2-1.1-0.4-0.5-0.2-1.1-0.3-0.6 0-1.1 0.1-0.6 0.2-1.1 0.5-0.5 0.2-0.9 0.7-0.3 0.3-0.5 0.7-0.2 0.4-0.3 0.9-0.2 0.4-0.3 0.8-0.1 0.5-0.1 0.9 0.3-0.2 0.8-0.4 0.4-0.1 0.8-0.1 0.5-0.1 1 0 0.4 0 0.8 0.1 0.6 0.3 1.1 0.5 0.5 0.3 1 0.6 0.5 0.3 1 0.7 0.4 0.3 0.8 0.7c2.5 2.2 5 4.4 7.9 5.8 2.8 1.4 6.3 1.8 9.2 0.4q0.9-0.6 1.7-1.3 0.8-0.7 1.5-1.6 0.7-0.9 1.1-1.8 0.5-1 0.8-2.1-0.3 0.5-0.7 0.8-0.3 0.4-0.7 0.8-0.4 0.3-0.8 0.6-0.5 0.3-0.9 0.6z"/>
	</g>
	<path fill-rule="evenodd" class="s3" d="m693 635.3c-16.6 0-30-13.4-30-30 0-16.6 13.4-30 30-30 16.6 0 30 13.4 30 30 0 16.6-13.4 30-30 30z"/>
	<path fill-rule="evenodd" class="s2" d="m693 635.3c-16.6 0-30-13.4-30-30 0-16.6 13.4-30 30-30 16.6 0 30 13.4 30 30 0 16.6-13.4 30-30 30z"/>
	<path fill-rule="evenodd" class="s1" d="m693 624.3c-10.5 0-19-8.5-19-19 0-10.5 8.5-19 19-19 10.5 0 19 8.5 19 19 0 10.5-8.5 19-19 19z"/>
	<path fill-rule="evenodd" class="s2" d="m693 624.3c-10.5 0-19-8.5-19-19 0-10.5 8.5-19 19-19 10.5 0 19 8.5 19 19 0 10.5-8.5 19-19 19z"/>
	<path class="s3" d="m670 558.3l19.7 44.5c0.3 0.6 0.8 1.2 1.4 1.6 0.6 0.4 1.3 0.6 2 0.6 0.7 0.1 1.4-0.1 2.1-0.5 0.6-0.4 1.1-0.9 1.4-1.6l23.4-47.6z"/>
	<path class="s2" d="m670 558.3l19.7 44.5c0.3 0.6 0.8 1.2 1.4 1.6 0.6 0.4 1.3 0.6 2 0.6 0.7 0.1 1.4-0.1 2.1-0.5 0.6-0.4 1.1-0.9 1.4-1.6l23.4-47.6z"/>
	<path fill-rule="evenodd" class="s3" d="m506 635.3c-16.6 0-30-13.4-30-30 0-16.6 13.4-30 30-30 16.6 0 30 13.4 30 30 0 16.6-13.4 30-30 30z"/>
	<path fill-rule="evenodd" class="s2" d="m506 635.3c-16.6 0-30-13.4-30-30 0-16.6 13.4-30 30-30 16.6 0 30 13.4 30 30 0 16.6-13.4 30-30 30z"/>
	<path fill-rule="evenodd" class="s1" d="m506 624.3c-10.5 0-19-8.5-19-19 0-10.5 8.5-19 19-19 10.5 0 19 8.5 19 19 0 10.5-8.5 19-19 19z"/>
	<path fill-rule="evenodd" class="s2" d="m506 624.3c-10.5 0-19-8.5-19-19 0-10.5 8.5-19 19-19 10.5 0 19 8.5 19 19 0 10.5-8.5 19-19 19z"/>
	<path class="s3" d="m483 558.3l19.7 44.5c0.3 0.6 0.8 1.2 1.4 1.6 0.6 0.4 1.3 0.6 2 0.6 0.7 0.1 1.4-0.1 2.1-0.5 0.6-0.4 1.1-0.9 1.4-1.6l23.4-47.6z"/>
	<path class="s2" d="m483 558.3l19.7 44.5c0.3 0.6 0.8 1.2 1.4 1.6 0.6 0.4 1.3 0.6 2 0.6 0.7 0.1 1.4-0.1 2.1-0.5 0.6-0.4 1.1-0.9 1.4-1.6l23.4-47.6z"/>
	<path class="s3" d="m790.4 344q-0.1-0.6-0.3-1.1-0.2-0.5-0.5-1-0.4-0.5-0.8-0.8-0.4-0.4-0.9-0.7-0.9-0.3-1.8-0.3-1 0-1.9 0.3-0.8 0.4-1.5 1.1-0.6 0.6-1 1.5l-17.2 42.8-5 192h8l3-191.6 19.4-39.3q0.2-0.3 0.3-0.7 0.1-0.3 0.2-0.7 0-0.4 0-0.7 0-0.4 0-0.8z"/>
	<path fill-rule="evenodd" class="s6" d="m436.5 562.8l27-17 291.5-2.5 7.5 19.5h-326z"/>
	<path fill-rule="evenodd" class="s3" d="m436.5 580.8v-18l331.3-3.2-0.3 12.2h-325v9h-6z"/>
	<path fill-rule="evenodd" class="s3" d="m478.5 645.8c-16.6 0-30-13.4-30-30 0-16.6 13.4-30 30-30 16.6 0 30 13.4 30 30 0 16.6-13.4 30-30 30z"/>
	<path fill-rule="evenodd" class="s1" d="m478.5 634.8c-10.5 0-19-8.5-19-19 0-10.5 8.5-19 19-19 10.5 0 19 8.5 19 19 0 10.5-8.5 19-19 19z"/>
	<path class="s3" d="m455.5 568.8l19.7 44.5c0.3 0.6 0.8 1.2 1.4 1.6 0.6 0.4 1.3 0.6 2 0.6 0.7 0.1 1.4-0.1 2.1-0.5 0.6-0.4 1.1-0.9 1.4-1.6l23.4-47.6z"/>
	<path fill-rule="evenodd" class="s3" d="m711.5 645.8c-16.6 0-30-13.4-30-30 0-16.6 13.4-30 30-30 16.6 0 30 13.4 30 30 0 16.6-13.4 30-30 30z"/>
	<path fill-rule="evenodd" class="s1" d="m711.5 634.8c-10.5 0-19-8.5-19-19 0-10.5 8.5-19 19-19 10.5 0 19 8.5 19 19 0 10.5-8.5 19-19 19z"/>
	<path class="s3" d="m688.5 568.8l19.7 44.5c0.3 0.6 0.8 1.2 1.4 1.6 0.6 0.4 1.3 0.6 2 0.6 0.7 0.1 1.4-0.1 2.1-0.5 0.6-0.4 1.1-0.9 1.4-1.6l23.4-47.6z"/>
	<path fill-rule="evenodd" class="s1" d="m474 484.3h125v69h-125z"/>
	<path fill-rule="evenodd" class="s2" d="m518 496.3h38v8h-38z"/>
	<path fill-rule="evenodd" class="s2" d="m522.8 497.3h28.5v6h-28.5z"/>
	<path fill-rule="evenodd" class="s1" d="m601 484.3h125v69h-125z"/>
	<path fill-rule="evenodd" class="s2" d="m645 496.3h38v8h-38z"/>
	<path fill-rule="evenodd" class="s2" d="m649.8 497.3h28.5v6h-28.5z"/>
	<path fill-rule="evenodd" class="s1" d="m474 413.3h125v69h-125z"/>
	<path fill-rule="evenodd" class="s2" d="m518 425.3h38v8h-38z"/>
	<path fill-rule="evenodd" class="s2" d="m522.8 426.3h28.5v6h-28.5z"/>
	<path fill-rule="evenodd" class="s1" d="m601 413.3h125v69h-125z"/>
	<path fill-rule="evenodd" class="s2" d="m645 425.3h38v8h-38z"/>
	<path fill-rule="evenodd" class="s2" d="m649.8 426.3h28.5v6h-28.5z"/>
	<path fill-rule="evenodd" class="s1" d="m474 341.3h125v69h-125z"/>
	<path fill-rule="evenodd" class="s2" d="m518 353.3h38v8h-38z"/>
	<path fill-rule="evenodd" class="s2" d="m522.8 354.3h28.5v6h-28.5z"/>
	<path fill-rule="evenodd" class="s1" d="m601 341.3h125v69h-125z"/>
	<path fill-rule="evenodd" class="s2" d="m645 353.3h38v8h-38z"/>
	<path fill-rule="evenodd" class="s2" d="m649.8 354.3h28.5v6h-28.5z"/>
	<path fill-rule="evenodd" class="s1" d="m601 269.3h125v69h-125z"/>
	<path fill-rule="evenodd" class="s2" d="m645 281.3h38v8h-38z"/>
	<path fill-rule="evenodd" class="s2" d="m649.8 282.3h28.5v6h-28.5z"/>
</svg>